<?xml version="1.0" ?><svg id="fill" viewBox="0 0 64 64" xmlns="http://www.w3.org/2000/svg"><polygon points="59 43 59 29 55 23 44 23 44 17 5 17 5 43 3 43 3 47 61 47 61 43 59 43" style="fill:#d9dae2"/><polygon points="59 43 43 43 43 23 55 23 59 29 59 43" style="fill:#027de5"/><rect height="2" style="fill:#cfcfd9" width="58" x="3" y="45"/><circle cx="48" cy="47" r="4" style="fill:#444"/><circle cx="16" cy="47" r="4" style="fill:#444"/><circle cx="16" cy="47" r="2" style="fill:#e5e6eb"/><circle cx="48" cy="47" r="2" style="fill:#e5e6eb"/><rect height="26" style="fill:#94c7f2" width="39" x="5" y="17"/><path d="M8,17H5V43H45V41H32A24,24,0,0,1,8,17Z" style="fill:#85b4e0"/><rect height="14" style="fill:#0468ad" width="4" x="35" y="21"/><rect height="14" style="fill:#0468ad" width="4" x="27" y="21"/><rect height="14" style="fill:#0468ad" width="4" x="19" y="21"/><rect height="14" style="fill:#0468ad" width="4" x="11" y="21"/><path d="M59,43H44V23h3v6A12,12,0,0,0,59,41h0Z" style="fill:#0468ad"/><polygon points="54 36.926 45 36.926 45 28 54 28 54 33.101 54 36.926" style="fill:#94c7f2"/><polygon points="54 35 46 28 54 28 54 35" style="fill:#fff"/><path d="M61,42H60V29a1.006,1.006,0,0,0-.168-.555l-4-6A1,1,0,0,0,55,22H46V19.949A3.953,3.953,0,0,0,42.051,16H7.844A3.848,3.848,0,0,0,4,19.844V42H3a1,1,0,0,0-1,1v4a1,1,0,0,0,1,1h8.1a5,5,0,0,0,9.8,0H43.1a5,5,0,0,0,9.8,0H61a1,1,0,0,0,1-1V43A1,1,0,0,0,61,42Zm-1,4H52a1,1,0,0,0-1,1,3,3,0,0,1-6,0,1,1,0,0,0-1-1H20a1,1,0,0,0-1,1,3,3,0,0,1-6,0,1,1,0,0,0-1-1H4V44H5a1,1,0,0,0,1-1V19.844A1.846,1.846,0,0,1,7.844,18H42.051A1.952,1.952,0,0,1,44,19.949V23a1,1,0,0,0,1,1h9.465L58,29.3V43a1,1,0,0,0,1,1h1Z"/><path d="M54,27H45a1,1,0,0,0-1,1v9a1,1,0,0,0,1,1h9a1,1,0,0,0,1-1V28A1,1,0,0,0,54,27Zm-1,9H46V29h7Z"/></svg>